<svg xmlns="http://www.w3.org/2000/svg" xmlns:xlink="http://www.w3.org/1999/xlink" width="2000" zoomAndPan="magnify" viewBox="0 0 1500 1499.999933" height="2000" preserveAspectRatio="xMidYMid meet" version="1.0"><defs><clipPath id="ef9f134619"><path d="M 465.222656 370.769531 L 1024.480469 370.769531 L 1024.480469 930.03125 L 465.222656 930.03125 Z M 465.222656 370.769531 " clip-rule="nonzero"/></clipPath><clipPath id="5d7d35d0fb"><path d="M 744.851562 370.769531 C 590.417969 370.769531 465.222656 495.964844 465.222656 650.398438 C 465.222656 804.835938 590.417969 930.03125 744.851562 930.03125 C 899.285156 930.03125 1024.480469 804.835938 1024.480469 650.398438 C 1024.480469 495.964844 899.285156 370.769531 744.851562 370.769531 Z M 744.851562 370.769531 " clip-rule="nonzero"/></clipPath><clipPath id="415997eb0b"><path d="M 0.222656 0.769531 L 559.480469 0.769531 L 559.480469 560.03125 L 0.222656 560.03125 Z M 0.222656 0.769531 " clip-rule="nonzero"/></clipPath><clipPath id="72900ae4f8"><path d="M 279.851562 0.769531 C 125.417969 0.769531 0.222656 125.964844 0.222656 280.398438 C 0.222656 434.835938 125.417969 560.03125 279.851562 560.03125 C 434.285156 560.03125 559.480469 434.835938 559.480469 280.398438 C 559.480469 125.964844 434.285156 0.769531 279.851562 0.769531 Z M 279.851562 0.769531 " clip-rule="nonzero"/></clipPath><clipPath id="21c29ed50a"><rect x="0" width="560" y="0" height="561"/></clipPath><clipPath id="690b91b312"><path d="M 358 355.703125 L 1142 355.703125 L 1142 1143.953125 L 358 1143.953125 Z M 358 355.703125 " clip-rule="nonzero"/></clipPath></defs><rect x="-150" width="1800" fill="#ffffff" y="-149.999993" height="1799.99992" fill-opacity="1"/><rect x="-150" width="1800" fill="#219ebc" y="-149.999993" height="1799.99992" fill-opacity="1"/><g clip-path="url(#ef9f134619)"><g clip-path="url(#5d7d35d0fb)"><g transform="matrix(1, 0, 0, 1, 465, 370)"><g clip-path="url(#21c29ed50a)"><g clip-path="url(#415997eb0b)"><g clip-path="url(#72900ae4f8)"><path fill="#219ebc" d="M 0.222656 0.769531 L 559.480469 0.769531 L 559.480469 560.03125 L 0.222656 560.03125 Z M 0.222656 0.769531 " fill-opacity="1" fill-rule="nonzero"/></g></g></g></g></g></g><path fill="#023047" d="M 483.144531 812.207031 L 545.457031 812.207031 C 554.09375 812.207031 561.101562 805.203125 561.101562 796.558594 L 561.101562 734.25 C 561.101562 725.609375 554.097656 718.601562 545.457031 718.601562 L 483.144531 718.601562 C 474.503906 718.601562 467.5 725.605469 467.5 734.25 L 467.5 796.558594 C 467.5 805.203125 474.503906 812.207031 483.144531 812.207031 Z M 483.144531 812.207031 " fill-opacity="1" fill-rule="nonzero"/><path fill="#023047" d="M 483.144531 941.027344 L 545.457031 941.027344 C 554.09375 941.027344 561.101562 934.023438 561.101562 925.382812 L 561.101562 863.070312 C 561.101562 854.433594 554.097656 847.425781 545.457031 847.425781 L 483.144531 847.425781 C 474.503906 847.425781 467.5 854.429688 467.5 863.070312 L 467.5 925.382812 C 467.5 934.023438 474.503906 941.027344 483.144531 941.027344 Z M 483.144531 941.027344 " fill-opacity="1" fill-rule="nonzero"/><path fill="#023047" d="M 483.144531 1069.851562 L 545.457031 1069.851562 C 554.09375 1069.851562 561.101562 1062.847656 561.101562 1054.203125 L 561.101562 991.894531 C 561.101562 983.253906 554.097656 976.246094 545.457031 976.246094 L 483.144531 976.246094 C 474.503906 976.246094 467.5 983.25 467.5 991.894531 L 467.5 1054.203125 C 467.5 1062.847656 474.503906 1069.851562 483.144531 1069.851562 Z M 483.144531 1069.851562 " fill-opacity="1" fill-rule="nonzero"/><path fill="#023047" d="M 640.277344 812.207031 L 702.585938 812.207031 C 711.226562 812.207031 718.234375 805.203125 718.234375 796.558594 L 718.234375 734.25 C 718.234375 725.609375 711.230469 718.601562 702.585938 718.601562 L 640.277344 718.601562 C 631.632812 718.601562 624.628906 725.605469 624.628906 734.25 L 624.628906 796.558594 C 624.632812 805.203125 631.636719 812.207031 640.277344 812.207031 Z M 640.277344 812.207031 " fill-opacity="1" fill-rule="nonzero"/><path fill="#023047" d="M 640.277344 941.027344 L 702.585938 941.027344 C 711.226562 941.027344 718.234375 934.023438 718.234375 925.382812 L 718.234375 863.070312 C 718.234375 854.433594 711.230469 847.425781 702.585938 847.425781 L 640.277344 847.425781 C 631.632812 847.425781 624.628906 854.429688 624.628906 863.070312 L 624.628906 925.382812 C 624.632812 934.023438 631.636719 941.027344 640.277344 941.027344 Z M 640.277344 941.027344 " fill-opacity="1" fill-rule="nonzero"/><path fill="#023047" d="M 640.277344 1069.851562 L 702.585938 1069.851562 C 711.226562 1069.851562 718.234375 1062.847656 718.234375 1054.203125 L 718.234375 991.894531 C 718.234375 983.253906 711.230469 976.246094 702.585938 976.246094 L 640.277344 976.246094 C 631.632812 976.246094 624.628906 983.25 624.628906 991.894531 L 624.628906 1054.203125 C 624.632812 1062.847656 631.636719 1069.851562 640.277344 1069.851562 Z M 640.277344 1069.851562 " fill-opacity="1" fill-rule="nonzero"/><path fill="#023047" d="M 797.410156 812.207031 L 859.722656 812.207031 C 868.359375 812.207031 875.367188 805.203125 875.367188 796.558594 L 875.367188 734.25 C 875.367188 725.609375 868.363281 718.601562 859.722656 718.601562 L 797.410156 718.601562 C 788.769531 718.601562 781.765625 725.605469 781.765625 734.25 L 781.765625 796.558594 C 781.765625 805.203125 788.769531 812.207031 797.410156 812.207031 Z M 797.410156 812.207031 " fill-opacity="1" fill-rule="nonzero"/><path fill="#023047" d="M 859.722656 976.246094 L 797.410156 976.246094 C 788.769531 976.246094 781.765625 983.25 781.765625 991.894531 L 781.765625 1054.203125 C 781.765625 1062.84375 788.769531 1069.851562 797.410156 1069.851562 L 859.722656 1069.851562 C 868.359375 1069.851562 875.367188 1062.847656 875.367188 1054.203125 L 875.367188 991.894531 C 875.367188 983.25 868.359375 976.246094 859.722656 976.246094 Z M 859.722656 976.246094 " fill-opacity="1" fill-rule="nonzero"/><path fill="#023047" d="M 954.542969 812.207031 L 1016.851562 812.207031 C 1025.492188 812.207031 1032.5 805.203125 1032.5 796.558594 L 1032.5 734.25 C 1032.5 725.609375 1025.496094 718.601562 1016.851562 718.601562 L 954.542969 718.601562 C 945.902344 718.601562 938.894531 725.605469 938.894531 734.25 L 938.894531 796.558594 C 938.894531 805.203125 945.898438 812.207031 954.542969 812.207031 Z M 954.542969 812.207031 " fill-opacity="1" fill-rule="nonzero"/><path fill="#023047" d="M 954.542969 941.027344 L 1016.851562 941.027344 C 1025.492188 941.027344 1032.5 934.023438 1032.5 925.382812 L 1032.5 863.070312 C 1032.5 854.433594 1025.496094 847.425781 1016.851562 847.425781 L 954.542969 847.425781 C 945.902344 847.425781 938.894531 854.429688 938.894531 863.070312 L 938.894531 925.382812 C 938.894531 934.023438 945.898438 941.027344 954.542969 941.027344 Z M 954.542969 941.027344 " fill-opacity="1" fill-rule="nonzero"/><g clip-path="url(#690b91b312)"><path fill="#023047" d="M 957.984375 355.695312 C 943.308594 355.695312 931.410156 367.59375 931.410156 382.269531 L 931.410156 435.667969 L 569.957031 435.667969 L 569.957031 382.269531 C 569.957031 367.59375 558.058594 355.695312 543.382812 355.695312 C 528.707031 355.695312 516.808594 367.59375 516.808594 382.269531 L 516.808594 435.667969 L 433.054688 435.667969 C 391.789062 435.667969 358.222656 469.238281 358.222656 510.5 L 358.222656 1069.464844 C 358.222656 1110.726562 391.789062 1144.296875 433.054688 1144.296875 L 1066.945312 1144.296875 C 1108.207031 1144.296875 1141.777344 1110.726562 1141.777344 1069.464844 L 1141.777344 510.5 C 1141.777344 469.238281 1108.207031 435.667969 1066.945312 435.667969 L 984.558594 435.667969 L 984.558594 382.269531 C 984.558594 367.59375 972.660156 355.695312 957.984375 355.695312 Z M 516.808594 473.792969 L 516.808594 506.785156 C 516.808594 521.460938 528.707031 533.359375 543.382812 533.359375 C 558.058594 533.359375 569.957031 521.460938 569.957031 506.785156 L 569.957031 473.792969 C 579.585938 481.558594 585.75 493.453125 585.75 506.785156 C 585.75 530.183594 566.78125 549.152344 543.382812 549.152344 C 519.980469 549.152344 501.015625 530.183594 501.015625 506.785156 C 501.015625 493.453125 507.175781 481.558594 516.808594 473.792969 Z M 1104.910156 1069.464844 C 1104.910156 1090.398438 1087.878906 1107.429688 1066.945312 1107.429688 L 433.054688 1107.429688 C 412.121094 1107.429688 395.09375 1090.398438 395.09375 1069.464844 L 395.09375 681.027344 L 1104.910156 681.027344 Z M 1000.351562 506.785156 C 1000.351562 530.183594 981.382812 549.152344 957.984375 549.152344 C 934.585938 549.152344 915.617188 530.183594 915.617188 506.785156 C 915.617188 493.453125 921.777344 481.558594 931.40625 473.792969 L 931.40625 506.785156 C 931.40625 521.460938 943.304688 533.359375 957.980469 533.359375 C 972.65625 533.359375 984.554688 521.460938 984.554688 506.785156 L 984.554688 473.789062 C 994.1875 481.558594 1000.351562 493.453125 1000.351562 506.785156 Z M 1000.351562 506.785156 " fill-opacity="1" fill-rule="nonzero"/></g><path fill="#023047" d="M 823.636719 949.285156 L 897.886719 875.035156 C 905.085938 867.835938 905.085938 856.164062 897.886719 848.964844 C 890.6875 841.765625 879.015625 841.765625 871.816406 848.964844 L 823.636719 897.144531 L 804.285156 877.796875 C 797.089844 870.597656 785.414062 870.597656 778.214844 877.796875 C 771.015625 884.996094 771.015625 896.667969 778.214844 903.867188 Z M 823.636719 949.285156 " fill-opacity="1" fill-rule="nonzero"/></svg>